<svg xmlns="http://www.w3.org/2000/svg" xmlns:xlink="http://www.w3.org/1999/xlink" width="500" zoomAndPan="magnify" viewBox="0 0 375 374.999991" height="500" preserveAspectRatio="xMidYMid meet" version="1.0"><defs><g/></defs><g fill="#ff8e31" fill-opacity="1"><g transform="translate(44.821374, 299.99998)"><g><path d="M 135.40625 1.546875 C 129.425781 1.546875 122.109375 1.492188 113.453125 1.390625 C 104.796875 1.285156 95.726562 1.179688 86.25 1.078125 C 76.769531 0.972656 67.597656 0.867188 58.734375 0.765625 C 49.878906 0.671875 42.097656 0.570312 35.390625 0.46875 C 28.691406 0.363281 23.898438 0.207031 21.015625 0 C 17.929688 -0.207031 15.359375 -1.082031 13.296875 -2.625 C 11.234375 -4.175781 10.203125 -6.492188 10.203125 -9.578125 C 10.410156 -22.972656 10.71875 -37.96875 11.125 -54.5625 C 11.539062 -71.15625 12.054688 -88.414062 12.671875 -106.34375 C 13.296875 -124.28125 14.117188 -141.957031 15.140625 -159.375 C 16.171875 -176.789062 17.304688 -192.914062 18.546875 -207.75 C 18.960938 -210.632812 20.148438 -212.742188 22.109375 -214.078125 C 24.066406 -215.421875 26.488281 -216.195312 29.375 -216.40625 C 31.84375 -216.613281 36.113281 -216.769531 42.1875 -216.875 C 48.269531 -216.976562 55.429688 -217.082031 63.671875 -217.1875 C 71.921875 -217.289062 80.476562 -217.390625 89.34375 -217.484375 C 98.207031 -217.585938 106.707031 -217.640625 114.84375 -217.640625 C 122.988281 -217.640625 130.050781 -217.640625 136.03125 -217.640625 C 147.15625 -217.640625 159.207031 -217.640625 172.1875 -217.640625 C 185.175781 -217.640625 197.800781 -217.535156 210.0625 -217.328125 C 222.332031 -217.128906 232.796875 -216.820312 241.453125 -216.40625 C 247.429688 -216.195312 250.726562 -213.109375 251.34375 -207.140625 C 251.957031 -202.398438 252.472656 -196.316406 252.890625 -188.890625 C 253.304688 -181.472656 253.71875 -174.101562 254.125 -166.78125 C 254.539062 -159.46875 254.75 -153.546875 254.75 -149.015625 C 254.945312 -144.273438 253.191406 -141.488281 249.484375 -140.65625 C 245.773438 -139.832031 242.375 -141.484375 239.28125 -145.609375 C 231.445312 -156.535156 219.390625 -164.421875 203.109375 -169.265625 C 186.828125 -174.109375 165.085938 -176.53125 137.890625 -176.53125 C 125.316406 -176.53125 113.820312 -175.753906 103.40625 -174.203125 C 93 -172.660156 84.753906 -170.035156 78.671875 -166.328125 C 72.597656 -162.617188 69.5625 -157.46875 69.5625 -150.875 L 69.5625 -149.015625 C 69.5625 -136.023438 86.359375 -129.53125 119.953125 -129.53125 C 127.785156 -129.53125 136.546875 -129.6875 146.234375 -130 C 155.921875 -130.3125 165.503906 -130.722656 174.984375 -131.234375 C 184.460938 -131.753906 192.707031 -132.320312 199.71875 -132.9375 C 202.601562 -133.351562 205.125 -132.582031 207.28125 -130.625 C 209.445312 -128.664062 210.53125 -126.242188 210.53125 -123.359375 L 210.53125 -93.984375 C 210.53125 -90.679688 209.242188 -88.515625 206.671875 -87.484375 C 204.097656 -86.460938 201.054688 -86.976562 197.546875 -89.03125 C 191.984375 -91.71875 185.128906 -93.78125 176.984375 -95.21875 C 168.847656 -96.664062 160.296875 -97.695312 151.328125 -98.3125 C 142.367188 -98.925781 133.867188 -99.234375 125.828125 -99.234375 C 116.140625 -99.234375 106.914062 -98.613281 98.15625 -97.375 C 89.394531 -96.144531 82.332031 -93.828125 76.96875 -90.421875 C 71.613281 -87.023438 68.9375 -82.132812 68.9375 -75.75 L 68.9375 -71.71875 C 68.9375 -64.09375 72.800781 -58.015625 80.53125 -53.484375 C 88.257812 -48.953125 98.410156 -45.757812 110.984375 -43.90625 C 123.554688 -42.050781 136.851562 -41.125 150.875 -41.125 C 166.738281 -41.125 180.179688 -42 191.203125 -43.75 C 202.234375 -45.5 211.5625 -48.175781 219.1875 -51.78125 C 226.8125 -55.382812 233.40625 -60.019531 238.96875 -65.6875 C 244.539062 -71.363281 249.800781 -78.117188 254.75 -85.953125 C 257.007812 -89.859375 260.148438 -91.601562 264.171875 -91.1875 C 268.191406 -90.78125 270.507812 -88.207031 271.125 -83.46875 C 271.75 -79.34375 272.316406 -73.878906 272.828125 -67.078125 C 273.347656 -60.285156 273.914062 -53.070312 274.53125 -45.4375 C 275.144531 -37.8125 275.65625 -30.597656 276.0625 -23.796875 C 276.476562 -17.003906 276.789062 -11.546875 277 -7.421875 C 277.414062 -2.679688 274.84375 -0.207031 269.28125 0 C 262.0625 0.414062 252.679688 0.722656 241.140625 0.921875 C 229.597656 1.128906 217.28125 1.285156 204.1875 1.390625 C 191.101562 1.492188 178.476562 1.546875 166.3125 1.546875 C 154.15625 1.546875 143.851562 1.546875 135.40625 1.546875 Z M 135.40625 1.546875 "/></g></g></g></svg>